<svg xmlns="http://www.w3.org/2000/svg" width="357" height="406" viewBox="0 0 357 406" version="1.1"><path d="M 171.500 2.630 C 169.052 3.827, 168.960 3.975, 171 3.435 C 179.516 1.180, 185.031 1.941, 194.342 6.656 C 197.005 8.004, 198.943 8.717, 198.648 8.240 C 197.979 7.157, 190.683 3.658, 185.929 2.140 C 181.178 0.623, 175.187 0.826, 171.500 2.630 M 98.150 2.719 C 90.777 4.120, 78.020 15.184, 78.005 20.191 C 78.002 21.121, 77.550 22.160, 77 22.500 C 76.450 22.840, 76 26.451, 76 30.524 C 76 40.361, 75.686 40.530, 58 40.230 C 50.575 40.104, 41.800 40.342, 38.500 40.760 C 34.595 41.254, 39.405 41.463, 52.279 41.356 C 76.983 41.152, 77 41.145, 77 30.963 C 77 27.119, 77.397 23.191, 77.883 22.236 C 78.369 21.281, 79.382 19.174, 80.133 17.553 C 82.758 11.895, 93.025 4.029, 97.845 3.985 C 98.755 3.976, 100.175 3.533, 101 3 C 102.550 1.998, 102.150 1.959, 98.150 2.719 M 249 2.877 C 247.247 3.413, 248.298 3.624, 252.516 3.583 C 259.039 3.521, 265.758 5.272, 270.500 8.269 L 273.500 10.165 270.762 7.804 C 266.391 4.036, 254.222 1.281, 249 2.877 M 163.189 6.869 C 160.818 8.442, 158.285 10.577, 157.560 11.614 C 153.830 16.950, 151.959 21.595, 151.454 26.769 C 150.393 37.642, 150.087 38.639, 147.436 39.847 C 144.327 41.264, 136.344 41.366, 135.500 40 C 135.160 39.450, 134.346 39.014, 133.691 39.032 C 133.036 39.049, 133.374 39.724, 134.441 40.532 C 136.956 42.434, 144.296 42.415, 148.005 40.498 C 151.066 38.914, 151.356 38.019, 152.455 26.764 C 152.939 21.799, 154.905 16.998, 158.746 11.402 C 159.161 10.798, 161.412 9.051, 163.750 7.519 C 167.424 5.111, 168.703 3.988, 167.750 4.004 C 167.613 4.007, 165.560 5.296, 163.189 6.869 M 243.525 4.733 C 238.124 6.102, 232.704 11.564, 229.367 19 C 228.503 20.925, 227.365 23.420, 226.839 24.545 C 226.312 25.670, 226.050 29.045, 226.256 32.045 L 226.630 37.500 226.815 31.736 C 226.917 28.566, 227.401 25.191, 227.891 24.236 C 228.380 23.281, 229.754 20.475, 230.943 18 C 232.132 15.525, 233.643 12.808, 234.302 11.963 C 236.129 9.620, 241.618 6, 243.345 6 C 244.190 6, 245.160 5.550, 245.500 5 C 245.840 4.450, 245.979 4.052, 245.809 4.116 C 245.639 4.180, 244.611 4.457, 243.525 4.733 M 188.165 31.044 C 188.944 33.279, 188.945 34.826, 188.167 36.533 C 187.195 38.666, 186.333 38.946, 179.792 39.257 L 172.500 39.603 179.595 39.801 C 188.275 40.044, 190.658 38.320, 189.580 32.575 C 189.218 30.647, 188.508 28.814, 188.001 28.501 C 187.495 28.188, 187.568 29.332, 188.165 31.044 M 110.411 46 C 110.411 55.625, 110.561 59.563, 110.745 54.750 C 110.928 49.937, 110.928 42.062, 110.745 37.250 C 110.561 32.438, 110.411 36.375, 110.411 46 M 261.409 46.500 C 261.408 55.850, 261.558 59.810, 261.743 55.299 C 261.928 50.789, 261.929 43.139, 261.745 38.299 C 261.562 33.460, 261.410 37.150, 261.409 46.500 M 318.500 41.744 C 321.800 41.945, 324.928 42.535, 325.450 43.055 C 325.972 43.575, 327.408 44, 328.641 44 C 329.874 44, 331.160 44.450, 331.500 45 C 331.840 45.550, 332.879 45.997, 333.809 45.994 C 334.879 45.990, 334.448 45.439, 332.636 44.494 C 331.060 43.672, 328.949 43, 327.945 43 C 326.940 43, 325.840 42.550, 325.500 42 C 325.160 41.450, 322.096 41.085, 318.691 41.189 L 312.500 41.378 318.500 41.744 M 26.500 44.580 C 18.625 48.534, 17.067 49.545, 13.323 53.133 C 9.677 56.627, 4 64.259, 4 65.667 C 4 66.110, 5.525 64.229, 7.389 61.487 C 12.899 53.380, 16.119 50.724, 26.750 45.514 C 29.638 44.099, 32 42.730, 32 42.471 C 32 41.812, 32.057 41.790, 26.500 44.580 M 329.484 236 C 329.484 302.825, 329.604 330.162, 329.750 296.750 C 329.896 263.337, 329.896 208.662, 329.750 175.250 C 329.604 141.837, 329.484 169.175, 329.484 236 M 73.852 130.514 C 69.627 132.715, 64 139.333, 65.272 140.605 C 65.547 140.880, 66.738 139.542, 67.918 137.632 C 71.729 131.466, 76.083 129.650, 87.250 129.570 C 92.612 129.531, 97 129.162, 97 128.750 C 97 128.338, 92.838 128.021, 87.750 128.047 C 79.967 128.086, 77.763 128.477, 73.852 130.514 M 268.083 128.406 C 268.313 128.630, 271.081 129.086, 274.236 129.419 C 284.086 130.460, 289.131 134.608, 291.566 143.667 C 292.380 146.694, 292.882 147.566, 292.911 146 C 292.972 142.640, 289.818 136.009, 286.868 133.298 C 283.350 130.064, 277.701 128, 272.365 128 C 269.781 128, 267.854 128.183, 268.083 128.406 M 130.500 134 C 130.114 134.625, 132.156 135, 135.941 135 C 139.314 135, 142 134.557, 142 134 C 142 133.450, 139.552 133, 136.559 133 C 133.566 133, 130.840 133.450, 130.500 134 M 63.625 145.125 C 62.551 150.497, 62.928 317.344, 64.018 319 C 64.671 319.992, 64.920 290.255, 64.753 231.250 C 64.614 182.163, 64.444 142, 64.375 142 C 64.306 142, 63.969 143.406, 63.625 145.125 M 87.735 148.126 C 86.213 149.261, 84.470 151.159, 83.859 152.345 C 83.095 153.829, 83.896 153.410, 86.430 151 L 90.111 147.500 177.243 147.234 L 264.376 146.967 268.129 149.984 C 273.275 154.119, 274.254 153.790, 269.570 149.500 L 265.749 146 178.124 146.032 C 91.193 146.063, 90.478 146.080, 87.735 148.126 M 81.020 230.051 C 81.003 295.382, 81.199 305.483, 82.526 308.051 C 83.365 309.673, 84.281 311, 84.561 311 C 84.841 311, 84.592 310.106, 84.007 309.014 C 83.283 307.661, 82.946 282.788, 82.949 231.014 C 82.952 183.232, 82.598 155, 81.996 155 C 81.394 155, 81.031 182.899, 81.020 230.051 M 102.200 164.200 C 101.540 164.860, 101 166.035, 101 166.811 C 101 167.761, 101.571 167.536, 102.750 166.119 C 104.345 164.202, 105.694 163.990, 118 163.726 L 131.500 163.437 117.450 163.218 C 107.596 163.065, 103.042 163.358, 102.200 164.200 M 159.750 164.080 C 158.787 164.641, 158.007 165.640, 158.015 166.300 C 158.025 167.029, 158.402 166.911, 158.976 166 C 159.712 164.833, 162.982 164.377, 173.711 163.944 L 187.500 163.389 174.500 163.225 C 167.157 163.132, 160.739 163.504, 159.750 164.080 M 261.500 172 C 265.874 176.400, 269.678 180, 269.953 180 C 270.228 180, 266.874 176.400, 262.500 172 C 258.126 167.600, 254.322 164, 254.047 164 C 253.772 164, 257.126 167.600, 261.500 172 M 172.542 166.309 C 167.480 169.389, 166.267 172.206, 165.978 181.557 C 165.670 191.504, 165.674 191.531, 167.571 193.429 C 169.976 195.833, 180.040 195.567, 182.975 193.021 C 185.435 190.888, 185.873 186.358, 185.031 171.750 L 184.642 165 179.571 165.059 C 176.782 165.091, 173.619 165.654, 172.542 166.309 M 221.415 182.250 L 213.374 190.500 219.937 196.475 L 226.500 202.450 221.250 196.944 C 218.363 193.915, 216.032 191.001, 216.072 190.469 C 216.112 189.936, 217.714 188.195, 219.631 186.600 L 223.118 183.700 227.349 187.600 C 231.034 190.998, 230.983 190.898, 226.946 186.829 L 222.313 182.157 226.392 178.079 C 228.635 175.835, 230.242 174, 229.963 174 C 229.684 174, 225.837 177.713, 221.415 182.250 M 245.275 204.996 C 249.212 208.848, 252.659 212, 252.935 212 C 253.757 212, 241.646 199.935, 239.808 198.923 C 238.878 198.411, 241.338 201.144, 245.275 204.996 M 283.572 209.556 L 274 219.113 273.842 229.306 C 273.755 234.913, 273.621 241.383, 273.544 243.684 C 273.467 245.985, 273.764 247.646, 274.202 247.375 C 274.641 247.104, 275 240.860, 275 233.500 C 275 226.140, 275.337 219.909, 275.750 219.653 C 276.163 219.397, 276.350 224.545, 276.166 231.094 C 275.871 241.641, 276.021 243, 277.488 243 C 279.008 243, 279.004 243.139, 277.438 244.705 C 274.990 247.153, 276.563 247.215, 284.500 244.986 C 291.179 243.110, 291.282 243.036, 286.750 243.387 C 281.568 243.788, 280.501 242.314, 283.542 238.954 C 284.825 237.536, 284.917 236.215, 284.093 231.095 C 283.050 224.620, 283.676 215, 285.139 215 C 286.748 215, 286.009 213.149, 284.250 212.771 C 282.878 212.476, 283.742 211.126, 288.250 206.522 C 291.413 203.293, 294 200.504, 294 200.325 C 294 199.341, 292.273 200.869, 283.572 209.556 M 237.746 214.997 L 242.991 220.467 234.746 228.984 L 226.500 237.500 235.766 228.505 C 240.895 223.526, 244.466 219.344, 243.766 219.136 C 243.070 218.931, 240.250 216.684, 237.500 214.144 L 232.500 209.526 237.746 214.997 M 141.500 232 C 146.427 236.950, 150.683 241, 150.958 241 C 151.233 241, 147.427 236.950, 142.500 232 C 137.573 227.050, 133.317 223, 133.042 223 C 132.767 223, 136.573 227.050, 141.500 232 M 104.500 258 C 109.979 263.500, 114.687 268, 114.962 268 C 115.237 268, 110.979 263.500, 105.500 258 C 100.021 252.500, 95.313 248, 95.038 248 C 94.763 248, 99.021 252.500, 104.500 258 M 248.405 273.828 C 250.270 275.954, 250.270 276.048, 248.432 278.250 C 247.398 279.488, 247.194 279.938, 247.977 279.250 C 248.759 278.563, 250.067 278, 250.882 278 C 251.697 278, 239.344 290.873, 223.432 306.606 L 194.500 335.212 223.727 306.979 L 252.954 278.745 250.931 275.903 C 249.818 274.339, 248.365 272.745, 247.703 272.358 C 247.042 271.972, 247.357 272.634, 248.405 273.828 M 290.138 300.156 C 286.589 307.590, 284.771 309.656, 268 325.315 C 262.225 330.707, 258.301 334.814, 259.281 334.440 C 260.261 334.067, 263.861 330.833, 267.281 327.253 C 270.701 323.672, 275.859 318.989, 278.742 316.846 C 281.775 314.591, 285.665 310.325, 287.971 306.724 L 291.958 300.500 291.979 309.782 C 291.992 315.485, 291.469 320.305, 290.623 322.282 C 288.471 327.313, 283.726 331.113, 277.810 332.545 C 274.156 333.429, 273.368 333.856, 275.282 333.915 C 278.555 334.015, 284.636 331.639, 287.320 329.212 C 291.548 325.388, 292.705 321.026, 293.279 306.750 C 293.584 299.188, 293.758 293.025, 293.666 293.056 C 293.575 293.087, 291.987 296.282, 290.138 300.156 M 88.654 315.250 C 88.909 315.663, 107.429 315.904, 129.809 315.786 C 152.189 315.669, 165.550 315.447, 159.500 315.293 C 132.167 314.597, 88.233 314.571, 88.654 315.250 M 65.004 321.600 C 65.002 322.205, 66.304 324.500, 67.898 326.701 C 70.852 330.779, 76.955 334.074, 81.270 333.921 C 83.811 333.831, 83.214 333.548, 77.254 332.016 C 72.844 330.883, 70.081 328.613, 66.883 323.500 C 65.852 321.850, 65.006 320.995, 65.004 321.600 M 165.073 326.635 C 163.933 328.084, 163 328.923, 163 328.500 C 163 328.077, 162.079 328.901, 160.954 330.332 C 159.012 332.801, 158.362 332.950, 148.204 333.254 L 137.500 333.575 148.538 333.788 L 159.575 334 164.500 329 C 167.209 326.250, 168.912 324, 168.285 324 C 167.658 324, 166.212 325.186, 165.073 326.635 M 171.719 356.657 C 160.840 367.445, 152.086 376.419, 152.266 376.599 C 152.446 376.779, 161.568 367.943, 172.537 356.963 C 183.506 345.983, 192.260 337.009, 191.991 337.021 C 191.721 337.032, 182.599 345.869, 171.719 356.657 M 0.136 369.703 C 0.061 371.465, 0.514 374.165, 1.141 375.703 C 3.766 382.134, 7.189 388.999, 8.031 389.519 C 8.527 389.826, 7.696 387.697, 6.183 384.789 C 3.403 379.445, 1.349 373.581, 0.652 369 C 0.344 366.971, 0.247 367.104, 0.136 369.703" stroke="none" fill="#119b50" fill-rule="evenodd"/><path d="M 104.500 129.045 C 108.900 129.453, 129.600 129.906, 150.500 130.050 C 171.400 130.195, 191.650 130.348, 195.500 130.391 C 206.977 130.518, 267.463 128.870, 267.915 128.418 C 268.145 128.188, 229.671 128.068, 182.417 128.151 C 135.163 128.234, 100.100 128.636, 104.500 129.045 M 287.346 136.665 C 287.713 137.305, 287.447 138.036, 286.756 138.290 C 285.751 138.658, 285.750 139.015, 286.750 140.075 C 287.438 140.804, 288 142.483, 288 143.807 C 288 145.536, 288.423 146.052, 289.500 145.638 C 290.325 145.322, 291 145.547, 291 146.140 C 291 146.786, 290.011 146.969, 288.527 146.596 C 286.587 146.109, 286.179 146.302, 286.634 147.488 C 286.953 148.319, 287.555 149, 287.971 149 C 288.387 149, 289.016 151.101, 289.368 153.669 C 289.834 157.065, 289.587 158.982, 288.463 160.698 C 287.612 161.995, 287.187 163.494, 287.517 164.028 C 287.848 164.563, 287.679 165, 287.142 165 C 286.606 165, 285.940 164.438, 285.662 163.750 C 285.282 162.808, 285.138 162.799, 285.079 163.715 C 285.036 164.383, 285.913 165.418, 287.028 166.015 C 288.143 166.612, 288.769 167.565, 288.418 168.133 C 288.067 168.701, 289.179 168.441, 290.890 167.557 L 294 165.949 293.985 156.224 C 293.974 149.147, 293.684 146.908, 292.920 148 C 292.126 149.135, 291.958 148.598, 292.230 145.789 C 292.428 143.747, 292.385 142.282, 292.134 142.532 C 291.651 143.016, 288.520 138.960, 288.507 137.833 C 288.503 137.467, 288.090 136.792, 287.590 136.333 C 287.067 135.855, 286.963 135.996, 287.346 136.665 M 64.778 146.010 C 63.931 151.277, 64.923 267.991, 65.859 273.077 L 66.672 277.500 67.483 270.500 C 67.928 266.650, 68.023 254.387, 67.693 243.250 C 67.319 230.652, 67.453 223, 68.046 223 C 68.571 223, 69 220.366, 69 217.147 C 69 208.698, 70.145 199, 71.142 199 C 71.614 199, 72.072 200.912, 72.160 203.250 C 72.306 207.134, 72.356 207.209, 72.733 204.121 C 72.960 202.263, 72.438 198.578, 71.573 195.933 C 70.708 193.288, 70 189.296, 70 187.062 C 70 183.667, 70.328 183, 72 183 C 73.833 183, 74 182.333, 74 175 C 74 170.333, 73.583 167, 73 167 C 72.426 167, 71.998 163.913, 71.994 159.750 C 71.987 150.408, 70.536 145, 68.036 145 C 67.008 145, 65.981 144.442, 65.753 143.760 C 65.526 143.077, 65.087 144.090, 64.778 146.010 M 88 145.961 C 88 146.490, 86.249 147.394, 84.108 147.971 C 80.731 148.880, 80.136 149.480, 79.608 152.509 C 79.274 154.429, 78.732 157.521, 78.405 159.379 C 78.022 161.552, 78.364 163.783, 79.365 165.629 C 80.906 168.474, 80.920 168.440, 80.960 161.867 C 80.995 156.088, 81.258 155.166, 83.004 154.709 C 84.252 154.383, 84.797 153.635, 84.449 152.728 C 84.116 151.861, 85.127 150.229, 86.945 148.700 C 90.127 146.022, 90.695 145, 89 145 C 88.450 145, 88 145.433, 88 145.961 M 109.292 147.742 C 113.027 147.935, 118.877 147.934, 122.292 147.739 C 125.706 147.545, 122.650 147.387, 115.500 147.389 C 108.350 147.390, 105.556 147.550, 109.292 147.742 M 231.750 147.747 C 237.938 147.922, 248.063 147.922, 254.250 147.747 C 260.438 147.571, 255.375 147.428, 243 147.428 C 230.625 147.428, 225.563 147.571, 231.750 147.747 M 272.333 152.490 C 272.333 153.261, 275.071 156.504, 278.416 159.696 L 284.499 165.500 279.250 159.969 C 276.362 156.926, 274 153.915, 274 153.278 C 274 152.640, 273.625 151.886, 273.167 151.603 C 272.708 151.320, 272.333 151.719, 272.333 152.490 M 118 164.044 C 109.471 164.388, 107.152 164.665, 111.703 164.794 C 119.895 165.028, 124 166.486, 124 169.161 C 124 171.238, 125.070 171.530, 126.700 169.900 C 127.500 169.100, 127.809 169.714, 127.834 172.150 C 127.853 173.993, 128.323 178.604, 128.879 182.398 C 130.577 193.972, 129.577 195.716, 121 196.149 C 118.330 196.284, 118.805 196.486, 123 197 L 128.500 197.674 121.250 197.837 C 116.975 197.933, 114 197.590, 114 197 C 114 196.450, 113.100 196, 112 196 C 110.900 196, 110 196.420, 110 196.934 C 110 197.447, 108.763 198.055, 107.250 198.284 C 105.737 198.513, 110.237 198.768, 117.250 198.850 C 126.383 198.957, 130 198.669, 130 197.833 C 130 197.192, 130.301 196.968, 130.669 197.336 C 131.037 197.703, 132.162 197.259, 133.169 196.347 C 134.774 194.894, 135 192.998, 135 180.956 C 135 162.595, 135.738 163.329, 118 164.044 M 160.566 165.357 C 160.844 166.789, 160.468 167.094, 158.927 166.691 C 156.992 166.185, 156.932 166.632, 157.057 180.584 C 157.133 189.104, 157.581 195, 158.152 195 C 158.683 195, 158.881 195.384, 158.590 195.854 C 158.300 196.323, 159.195 197.223, 160.578 197.854 C 164.010 199.417, 183.860 199.340, 187.321 197.750 C 191.509 195.826, 192.476 191.127, 191.326 178.290 C 190.016 163.670, 189.671 162.750, 185.868 163.745 C 184.318 164.150, 184.186 164.520, 185.170 165.705 C 185.896 166.580, 186.393 170.442, 186.408 175.333 C 186.440 185.258, 185.067 194.711, 183.868 192.820 C 183.274 191.884, 183.026 192.154, 183.015 193.750 C 183.001 195.806, 182.531 196, 177.547 196 C 171.118 196, 167.308 194.504, 166.337 191.598 C 165.951 190.444, 165.605 184.304, 165.568 177.953 L 165.500 166.405 169.500 166.698 C 172.196 166.895, 173.036 166.693, 172.076 166.078 C 171.002 165.391, 171.372 165.070, 173.576 164.775 C 175.184 164.560, 172.834 164.185, 168.353 163.942 C 160.829 163.534, 160.234 163.642, 160.566 165.357 M 100.397 180 C 100.397 187.975, 100.553 191.238, 100.743 187.250 C 100.932 183.262, 100.932 176.738, 100.743 172.750 C 100.553 168.762, 100.397 172.025, 100.397 180 M 219.182 187.076 C 217.357 188.735, 216.007 190.504, 216.182 191.006 C 216.877 193.001, 242.237 219, 243.489 219 C 244.226 219, 246.506 217.371, 248.556 215.380 L 252.283 211.761 237.891 197.897 C 229.976 190.272, 223.275 184.039, 223 184.046 C 222.725 184.053, 221.007 185.416, 219.182 187.076 M 288.924 203.661 C 287.591 205.125, 287.063 205.998, 287.750 205.602 C 289.892 204.368, 289.131 205.713, 285.750 209.138 C 283.028 211.895, 282.784 212.488, 284.250 212.788 C 285.212 212.985, 286 213.815, 286 214.632 C 286 215.449, 285.511 215.816, 284.914 215.447 C 284.226 215.022, 283.928 215.643, 284.100 217.138 C 284.250 218.437, 284.048 220.467, 283.651 221.649 C 283.254 222.831, 283.407 226.788, 283.991 230.443 C 284.878 235.998, 284.802 237.444, 283.526 239.266 C 280.961 242.929, 281.580 243.856, 286.250 243.343 C 295.405 242.337, 294.545 244.738, 294.150 221.295 C 293.957 209.858, 293.582 201.063, 293.316 201.750 C 293.051 202.438, 292.394 203, 291.858 203 C 291.321 203, 291.160 202.550, 291.500 202 C 292.639 200.157, 291.372 200.975, 288.924 203.661 M 275.667 219.667 C 275.300 220.033, 275 226.412, 275 233.842 C 275 247.012, 275.046 247.302, 276.850 245.425 C 278.315 243.900, 278.407 243.430, 277.292 243.166 C 276.158 242.896, 275.945 240.518, 276.193 230.914 C 276.362 224.359, 276.462 218.997, 276.417 218.998 C 276.371 218.999, 276.033 219.300, 275.667 219.667 M 273.365 229.500 C 273.368 235, 273.536 237.122, 273.738 234.216 C 273.941 231.311, 273.939 226.811, 273.734 224.216 C 273.528 221.622, 273.363 224, 273.365 229.500 M 247.405 278.132 C 246.357 279.305, 240.230 285.155, 233.788 291.132 C 227.346 297.110, 222.454 302, 222.915 302 C 223.377 302, 224.311 301.330, 224.991 300.511 C 225.671 299.692, 226.695 299.312, 227.268 299.666 C 227.840 300.019, 228.019 299.840, 227.666 299.268 C 227.312 298.695, 227.776 297.613, 228.698 296.863 C 230.159 295.675, 230.292 295.721, 229.731 297.218 C 229.377 298.163, 229.456 299.164, 229.906 299.442 C 230.356 299.720, 230.647 298.947, 230.552 297.724 C 230.360 295.241, 232.636 292, 234.572 292 C 235.266 292, 236.088 291.438, 236.399 290.750 C 236.710 290.063, 236.833 290.400, 236.673 291.500 C 236.513 292.600, 235.845 293.387, 235.191 293.250 C 234.536 293.113, 234 293.675, 234 294.500 C 234 295.325, 234.113 295.997, 234.250 295.994 C 234.387 295.991, 238.550 291.829, 243.500 286.746 C 248.450 281.663, 251.784 278.062, 250.908 278.743 C 248.955 280.264, 247.596 279.192, 249.131 277.342 C 250.958 275.141, 249.468 275.823, 247.405 278.132 M 293.355 308.500 C 293.352 313.450, 293.521 315.601, 293.731 313.280 C 293.940 310.959, 293.943 306.909, 293.736 304.280 C 293.530 301.651, 293.358 303.550, 293.355 308.500 M 210.248 312.614 C 204.610 317.878, 200.292 322.663, 200.653 323.247 C 201.014 323.831, 200.858 324.030, 200.308 323.690 C 199.010 322.888, 193.731 328.373, 194.736 329.480 C 195.156 329.942, 194.951 330.006, 194.281 329.620 C 192.752 328.742, 176.764 343.808, 177.669 345.273 C 178.021 345.843, 177.850 346.025, 177.288 345.678 C 175.991 344.877, 172.739 348.380, 173.748 349.491 C 174.162 349.948, 173.970 350.017, 173.322 349.646 C 171.771 348.757, 159.796 359.833, 160.665 361.353 C 161.026 361.984, 160.939 362.153, 160.473 361.730 C 159.490 360.836, 151.848 367.945, 152.558 369.093 C 152.819 369.516, 152.506 370.187, 151.862 370.585 C 151.131 371.037, 150.959 370.876, 151.405 370.155 C 152.861 367.799, 150.382 369.215, 146.686 372.850 L 142.872 376.601 146.983 376.844 C 151.055 377.084, 151.255 376.927, 168.516 359.899 C 178.099 350.446, 185.659 342.257, 185.315 341.701 C 184.972 341.146, 185.160 340.981, 185.732 341.334 C 187.028 342.135, 189.256 339.617, 188.241 338.498 C 187.834 338.048, 188.002 337.966, 188.616 338.316 C 189.230 338.666, 190.495 338.110, 191.427 337.080 C 192.452 335.948, 192.699 335.066, 192.051 334.850 C 191.462 334.654, 191.868 333.939, 192.953 333.261 C 194.667 332.191, 194.843 332.257, 194.293 333.765 C 193.727 335.319, 193.884 335.304, 195.807 333.616 C 196.987 332.580, 197.666 331.230, 197.316 330.616 C 196.966 330.002, 197.065 329.851, 197.535 330.279 C 198.006 330.707, 201.438 328.035, 205.161 324.340 C 210.785 318.760, 211.733 317.358, 210.764 316.061 C 209.787 314.755, 209.827 314.705, 211.006 315.758 C 212.169 316.796, 213.253 316.191, 217.208 312.295 C 222.388 307.193, 222.959 306.008, 220.250 305.985 C 218.786 305.972, 218.740 305.818, 219.966 305.042 C 220.899 304.452, 221.908 304.509, 222.739 305.199 C 223.746 306.034, 223.901 305.906, 223.416 304.641 C 223.069 303.739, 222.272 303.010, 221.643 303.022 C 221.014 303.034, 215.887 307.351, 210.248 312.614 M 137.500 315 C 155.650 315.298, 166.675 315.718, 162 315.934 C 153.588 316.322, 153.557 316.333, 159 317 C 163.611 317.565, 163.934 317.722, 161 317.973 C 158.446 318.192, 158.108 318.389, 159.750 318.706 C 160.988 318.944, 162 319.778, 162 320.558 C 162 321.339, 162.742 322.844, 163.650 323.904 C 165.018 325.502, 165.657 325.631, 167.400 324.665 C 171.095 322.615, 174.949 318.727, 174.310 317.692 C 173.970 317.142, 174.150 316.975, 174.712 317.322 C 175.273 317.669, 176.538 317.063, 177.521 315.976 C 179.300 314.011, 179.105 314.001, 141.905 314.229 L 104.500 314.459 137.500 315 M 91 316.992 C 89.984 317.654, 93.991 317.974, 103.417 317.985 C 111.071 317.993, 117.146 317.837, 116.917 317.637 C 115.832 316.693, 92.356 316.108, 91 316.992 M 85.789 332.741 C 89.248 332.937, 94.648 332.936, 97.789 332.738 C 100.930 332.540, 98.100 332.380, 91.500 332.382 C 84.900 332.384, 82.330 332.546, 85.789 332.741 M 99.684 334.748 C 110.235 334.910, 127.785 334.911, 138.684 334.749 C 149.583 334.587, 140.950 334.455, 119.500 334.455 C 98.050 334.454, 89.133 334.587, 99.684 334.748 M 263.280 334.736 C 265.909 334.943, 269.959 334.940, 272.280 334.731 C 274.601 334.521, 272.450 334.352, 267.500 334.355 C 262.550 334.358, 260.651 334.530, 263.280 334.736" stroke="none" fill="#0da753" fill-rule="evenodd"/><path d="M 104.500 129.045 C 108.900 129.453, 129.600 129.906, 150.500 130.050 C 171.400 130.195, 191.650 130.348, 195.500 130.391 C 206.977 130.518, 267.463 128.870, 267.915 128.418 C 268.145 128.188, 229.671 128.068, 182.417 128.151 C 135.163 128.234, 100.100 128.636, 104.500 129.045 M 287.346 136.665 C 287.713 137.305, 287.447 138.036, 286.756 138.290 C 285.751 138.658, 285.750 139.015, 286.750 140.075 C 287.438 140.804, 288 142.483, 288 143.807 C 288 145.536, 288.423 146.052, 289.500 145.638 C 290.325 145.322, 291 145.547, 291 146.140 C 291 146.786, 290.011 146.969, 288.527 146.596 C 286.587 146.109, 286.179 146.302, 286.634 147.488 C 286.953 148.319, 287.555 149, 287.971 149 C 288.387 149, 289.016 151.101, 289.368 153.669 C 289.834 157.065, 289.587 158.982, 288.463 160.698 C 287.612 161.995, 287.187 163.494, 287.517 164.028 C 287.848 164.563, 287.679 165, 287.142 165 C 286.606 165, 285.940 164.438, 285.662 163.750 C 285.282 162.808, 285.138 162.799, 285.079 163.715 C 285.036 164.383, 285.913 165.418, 287.028 166.015 C 288.143 166.612, 288.769 167.565, 288.418 168.133 C 288.067 168.701, 289.179 168.441, 290.890 167.557 L 294 165.949 293.985 156.224 C 293.974 149.147, 293.684 146.908, 292.920 148 C 292.126 149.135, 291.958 148.598, 292.230 145.789 C 292.428 143.747, 292.385 142.282, 292.134 142.532 C 291.651 143.016, 288.520 138.960, 288.507 137.833 C 288.503 137.467, 288.090 136.792, 287.590 136.333 C 287.067 135.855, 286.963 135.996, 287.346 136.665 M 64.778 146.010 C 63.931 151.277, 64.923 267.991, 65.859 273.077 L 66.672 277.500 67.483 270.500 C 67.928 266.650, 68.023 254.387, 67.693 243.250 C 67.319 230.652, 67.453 223, 68.046 223 C 68.571 223, 69 220.366, 69 217.147 C 69 208.698, 70.145 199, 71.142 199 C 71.614 199, 72.072 200.912, 72.160 203.250 C 72.306 207.134, 72.356 207.209, 72.733 204.121 C 72.960 202.263, 72.438 198.578, 71.573 195.933 C 70.708 193.288, 70 189.296, 70 187.062 C 70 183.667, 70.328 183, 72 183 C 73.833 183, 74 182.333, 74 175 C 74 170.333, 73.583 167, 73 167 C 72.426 167, 71.998 163.913, 71.994 159.750 C 71.987 150.408, 70.536 145, 68.036 145 C 67.008 145, 65.981 144.442, 65.753 143.760 C 65.526 143.077, 65.087 144.090, 64.778 146.010 M 88 145.961 C 88 146.490, 86.249 147.394, 84.108 147.971 C 80.731 148.880, 80.136 149.480, 79.608 152.509 C 79.274 154.429, 78.732 157.521, 78.405 159.379 C 78.022 161.552, 78.364 163.783, 79.365 165.629 C 80.906 168.474, 80.920 168.440, 80.960 161.867 C 80.995 156.088, 81.258 155.166, 83.004 154.709 C 84.252 154.383, 84.797 153.635, 84.449 152.728 C 84.116 151.861, 85.127 150.229, 86.945 148.700 C 90.127 146.022, 90.695 145, 89 145 C 88.450 145, 88 145.433, 88 145.961 M 109.292 147.742 C 113.027 147.935, 118.877 147.934, 122.292 147.739 C 125.706 147.545, 122.650 147.387, 115.500 147.389 C 108.350 147.390, 105.556 147.550, 109.292 147.742 M 231.750 147.747 C 237.938 147.922, 248.063 147.922, 254.250 147.747 C 260.438 147.571, 255.375 147.428, 243 147.428 C 230.625 147.428, 225.563 147.571, 231.750 147.747 M 272.333 152.490 C 272.333 153.261, 275.071 156.504, 278.416 159.696 L 284.499 165.500 279.250 159.969 C 276.362 156.926, 274 153.915, 274 153.278 C 274 152.640, 273.625 151.886, 273.167 151.603 C 272.708 151.320, 272.333 151.719, 272.333 152.490 M 118 164.044 C 109.471 164.388, 107.152 164.665, 111.703 164.794 C 119.895 165.028, 124 166.486, 124 169.161 C 124 171.238, 125.070 171.530, 126.700 169.900 C 127.500 169.100, 127.809 169.714, 127.834 172.150 C 127.853 173.993, 128.323 178.604, 128.879 182.398 C 130.577 193.972, 129.577 195.716, 121 196.149 C 118.330 196.284, 118.805 196.486, 123 197 L 128.500 197.674 121.250 197.837 C 116.975 197.933, 114 197.590, 114 197 C 114 196.450, 113.100 196, 112 196 C 110.900 196, 110 196.420, 110 196.934 C 110 197.447, 108.763 198.055, 107.250 198.284 C 105.737 198.513, 110.237 198.768, 117.250 198.850 C 126.383 198.957, 130 198.669, 130 197.833 C 130 197.192, 130.301 196.968, 130.669 197.336 C 131.037 197.703, 132.162 197.259, 133.169 196.347 C 134.774 194.894, 135 192.998, 135 180.956 C 135 162.595, 135.738 163.329, 118 164.044 M 160.566 165.357 C 160.844 166.789, 160.468 167.094, 158.927 166.691 C 156.992 166.185, 156.932 166.632, 157.057 180.584 C 157.133 189.104, 157.581 195, 158.152 195 C 158.683 195, 158.881 195.384, 158.590 195.854 C 158.300 196.323, 159.195 197.223, 160.578 197.854 C 164.010 199.417, 183.860 199.340, 187.321 197.750 C 191.509 195.826, 192.476 191.127, 191.326 178.290 C 190.016 163.670, 189.671 162.750, 185.868 163.745 C 184.318 164.150, 184.186 164.520, 185.170 165.705 C 185.896 166.580, 186.393 170.442, 186.408 175.333 C 186.440 185.258, 185.067 194.711, 183.868 192.820 C 183.274 191.884, 183.026 192.154, 183.015 193.750 C 183.001 195.806, 182.531 196, 177.547 196 C 171.118 196, 167.308 194.504, 166.337 191.598 C 165.951 190.444, 165.605 184.304, 165.568 177.953 L 165.500 166.405 169.500 166.698 C 172.196 166.895, 173.036 166.693, 172.076 166.078 C 171.002 165.391, 171.372 165.070, 173.576 164.775 C 175.184 164.560, 172.834 164.185, 168.353 163.942 C 160.829 163.534, 160.234 163.642, 160.566 165.357 M 100.397 180 C 100.397 187.975, 100.553 191.238, 100.743 187.250 C 100.932 183.262, 100.932 176.738, 100.743 172.750 C 100.553 168.762, 100.397 172.025, 100.397 180 M 219.182 187.076 C 217.357 188.735, 216.007 190.504, 216.182 191.006 C 216.877 193.001, 242.237 219, 243.489 219 C 244.226 219, 246.506 217.371, 248.556 215.380 L 252.283 211.761 237.891 197.897 C 229.976 190.272, 223.275 184.039, 223 184.046 C 222.725 184.053, 221.007 185.416, 219.182 187.076 M 288.924 203.661 C 287.591 205.125, 287.063 205.998, 287.750 205.602 C 289.892 204.368, 289.131 205.713, 285.750 209.138 C 283.028 211.895, 282.784 212.488, 284.250 212.788 C 285.212 212.985, 286 213.815, 286 214.632 C 286 215.449, 285.511 215.816, 284.914 215.447 C 284.226 215.022, 283.928 215.643, 284.100 217.138 C 284.250 218.437, 284.048 220.467, 283.651 221.649 C 283.254 222.831, 283.407 226.788, 283.991 230.443 C 284.878 235.998, 284.802 237.444, 283.526 239.266 C 280.961 242.929, 281.580 243.856, 286.250 243.343 C 295.405 242.337, 294.545 244.738, 294.150 221.295 C 293.957 209.858, 293.582 201.063, 293.316 201.750 C 293.051 202.438, 292.394 203, 291.858 203 C 291.321 203, 291.160 202.550, 291.500 202 C 292.639 200.157, 291.372 200.975, 288.924 203.661 M 275.667 219.667 C 275.300 220.033, 275 226.412, 275 233.842 C 275 247.012, 275.046 247.302, 276.850 245.425 C 278.315 243.900, 278.407 243.430, 277.292 243.166 C 276.158 242.896, 275.945 240.518, 276.193 230.914 C 276.362 224.359, 276.462 218.997, 276.417 218.998 C 276.371 218.999, 276.033 219.300, 275.667 219.667 M 273.365 229.500 C 273.368 235, 273.536 237.122, 273.738 234.216 C 273.941 231.311, 273.939 226.811, 273.734 224.216 C 273.528 221.622, 273.363 224, 273.365 229.500 M 247.405 278.132 C 246.357 279.305, 240.230 285.155, 233.788 291.132 C 227.346 297.110, 222.454 302, 222.915 302 C 223.377 302, 224.311 301.330, 224.991 300.511 C 225.671 299.692, 226.695 299.312, 227.268 299.666 C 227.840 300.019, 228.019 299.840, 227.666 299.268 C 227.312 298.695, 227.776 297.613, 228.698 296.863 C 230.159 295.675, 230.292 295.721, 229.731 297.218 C 229.377 298.163, 229.456 299.164, 229.906 299.442 C 230.356 299.720, 230.647 298.947, 230.552 297.724 C 230.360 295.241, 232.636 292, 234.572 292 C 235.266 292, 236.088 291.438, 236.399 290.750 C 236.710 290.063, 236.833 290.400, 236.673 291.500 C 236.513 292.600, 235.845 293.387, 235.191 293.250 C 234.536 293.113, 234 293.675, 234 294.500 C 234 295.325, 234.113 295.997, 234.250 295.994 C 234.387 295.991, 238.550 291.829, 243.500 286.746 C 248.450 281.663, 251.784 278.062, 250.908 278.743 C 248.955 280.264, 247.596 279.192, 249.131 277.342 C 250.958 275.141, 249.468 275.823, 247.405 278.132 M 293.355 308.500 C 293.352 313.450, 293.521 315.601, 293.731 313.280 C 293.940 310.959, 293.943 306.909, 293.736 304.280 C 293.530 301.651, 293.358 303.550, 293.355 308.500 M 210.248 312.614 C 204.610 317.878, 200.292 322.663, 200.653 323.247 C 201.014 323.831, 200.858 324.030, 200.308 323.690 C 199.010 322.888, 193.731 328.373, 194.736 329.480 C 195.156 329.942, 194.951 330.006, 194.281 329.620 C 192.752 328.742, 176.764 343.808, 177.669 345.273 C 178.021 345.843, 177.850 346.025, 177.288 345.678 C 175.991 344.877, 172.739 348.380, 173.748 349.491 C 174.162 349.948, 173.970 350.017, 173.322 349.646 C 171.771 348.757, 159.796 359.833, 160.665 361.353 C 161.026 361.984, 160.939 362.153, 160.473 361.730 C 159.490 360.836, 151.848 367.945, 152.558 369.093 C 152.819 369.516, 152.506 370.187, 151.862 370.585 C 151.131 371.037, 150.959 370.876, 151.405 370.155 C 152.861 367.799, 150.382 369.215, 146.686 372.850 L 142.872 376.601 146.983 376.844 C 151.055 377.084, 151.255 376.927, 168.516 359.899 C 178.099 350.446, 185.659 342.257, 185.315 341.701 C 184.972 341.146, 185.160 340.981, 185.732 341.334 C 187.028 342.135, 189.256 339.617, 188.241 338.498 C 187.834 338.048, 188.002 337.966, 188.616 338.316 C 189.230 338.666, 190.495 338.110, 191.427 337.080 C 192.452 335.948, 192.699 335.066, 192.051 334.850 C 191.462 334.654, 191.868 333.939, 192.953 333.261 C 194.667 332.191, 194.843 332.257, 194.293 333.765 C 193.727 335.319, 193.884 335.304, 195.807 333.616 C 196.987 332.580, 197.666 331.230, 197.316 330.616 C 196.966 330.002, 197.065 329.851, 197.535 330.279 C 198.006 330.707, 201.438 328.035, 205.161 324.340 C 210.785 318.760, 211.733 317.358, 210.764 316.061 C 209.787 314.755, 209.827 314.705, 211.006 315.758 C 212.169 316.796, 213.253 316.191, 217.208 312.295 C 222.388 307.193, 222.959 306.008, 220.250 305.985 C 218.786 305.972, 218.740 305.818, 219.966 305.042 C 220.899 304.452, 221.908 304.509, 222.739 305.199 C 223.746 306.034, 223.901 305.906, 223.416 304.641 C 223.069 303.739, 222.272 303.010, 221.643 303.022 C 221.014 303.034, 215.887 307.351, 210.248 312.614 M 137.500 315 C 155.650 315.298, 166.675 315.718, 162 315.934 C 153.588 316.322, 153.557 316.333, 159 317 C 163.611 317.565, 163.934 317.722, 161 317.973 C 158.446 318.192, 158.108 318.389, 159.750 318.706 C 160.988 318.944, 162 319.778, 162 320.558 C 162 321.339, 162.742 322.844, 163.650 323.904 C 165.018 325.502, 165.657 325.631, 167.400 324.665 C 171.095 322.615, 174.949 318.727, 174.310 317.692 C 173.970 317.142, 174.150 316.975, 174.712 317.322 C 175.273 317.669, 176.538 317.063, 177.521 315.976 C 179.300 314.011, 179.105 314.001, 141.905 314.229 L 104.500 314.459 137.500 315 M 91 316.992 C 89.984 317.654, 93.991 317.974, 103.417 317.985 C 111.071 317.993, 117.146 317.837, 116.917 317.637 C 115.832 316.693, 92.356 316.108, 91 316.992 M 85.789 332.741 C 89.248 332.937, 94.648 332.936, 97.789 332.738 C 100.930 332.540, 98.100 332.380, 91.500 332.382 C 84.900 332.384, 82.330 332.546, 85.789 332.741 M 99.684 334.748 C 110.235 334.910, 127.785 334.911, 138.684 334.749 C 149.583 334.587, 140.950 334.455, 119.500 334.455 C 98.050 334.454, 89.133 334.587, 99.684 334.748 M 263.280 334.736 C 265.909 334.943, 269.959 334.940, 272.280 334.731 C 274.601 334.521, 272.450 334.352, 267.500 334.355 C 262.550 334.358, 260.651 334.530, 263.280 334.736" stroke="none" fill="#0da753" fill-rule="evenodd"/><path d="M 86.888 130 C 78.808 130.381, 75.707 130.928, 73.888 132.293 C 72.575 133.279, 71.028 134.404, 70.452 134.793 C 69.875 135.182, 68.411 136.922, 67.198 138.659 C 64.778 142.127, 65.168 145, 68.060 145 C 70.534 145, 71.987 150.448, 71.994 159.750 C 71.998 163.913, 72.426 167, 73 167 C 73.583 167, 74 170.333, 74 175 C 74 182.333, 73.833 183, 72 183 C 70.328 183, 70 183.667, 70 187.062 C 70 189.296, 70.708 193.288, 71.573 195.933 C 72.438 198.578, 72.960 202.263, 72.733 204.121 C 72.356 207.209, 72.306 207.134, 72.160 203.250 C 72.072 200.912, 71.614 199, 71.142 199 C 70.145 199, 69 208.698, 69 217.147 C 69 220.366, 68.571 223, 68.046 223 C 67.453 223, 67.319 230.652, 67.693 243.250 C 68.313 264.175, 67.342 281.023, 65.920 274 C 65.530 272.075, 65.212 281.750, 65.213 295.500 C 65.215 311.034, 65.613 321.249, 66.266 322.479 C 67.525 324.853, 70.071 327.500, 71.095 327.500 C 71.501 327.500, 72.208 327.910, 72.667 328.410 C 73.151 328.939, 72.976 329.019, 72.250 328.601 C 71.563 328.206, 71 328.286, 71 328.780 C 71 331.066, 77.092 332.185, 89.996 332.269 L 103.500 332.357 93 333.047 C 87.211 333.427, 97.306 333.597, 115.500 333.426 C 139.541 333.200, 150.265 332.725, 155 331.677 C 158.575 330.886, 160.847 330.185, 160.050 330.119 C 158.016 329.952, 160.482 327.527, 162.702 327.512 C 164.961 327.495, 165.392 325.535, 163.545 323.688 C 162.695 322.838, 162 321.467, 162 320.641 C 162 319.815, 160.988 318.944, 159.750 318.706 C 158.119 318.392, 158.464 318.194, 161 317.989 C 170.475 317.222, 150.146 316.224, 126.500 316.295 C 110.425 316.343, 103.745 316.612, 109 317 C 116.847 317.579, 116.424 317.641, 103.500 317.798 C 94.155 317.913, 89.999 317.647, 91 317 C 92.308 316.155, 92.293 316.029, 90.886 316.015 C 88.884 315.996, 84.344 311.547, 82.221 307.521 C 80.804 304.835, 80.641 296.959, 80.755 236.587 C 80.863 179.224, 80.659 168.241, 79.441 165.887 C 77.672 162.464, 77.622 159.695, 79.250 155.158 C 80.250 152.371, 80.250 151.590, 79.250 151.254 C 77.439 150.645, 77.717 147.935, 79.750 146.392 C 81.861 144.790, 83 144.652, 83 146 C 83 146.550, 82.325 147, 81.500 147 C 80.675 147, 80 147.459, 80 148.019 C 80 148.637, 81.083 148.758, 82.750 148.326 C 84.263 147.934, 86.236 147.604, 87.136 147.592 C 88.036 147.581, 88.594 147.105, 88.375 146.536 C 88.102 145.825, 115.986 145.583, 177.239 145.765 C 235.116 145.936, 266.618 146.378, 266.835 147.021 C 267.020 147.566, 267.652 147.715, 268.240 147.352 C 268.870 146.962, 269.017 147.163, 268.598 147.841 C 268.174 148.528, 268.912 149.458, 270.430 150.150 C 271.828 150.787, 273.673 152.378, 274.530 153.686 C 275.387 154.994, 276.588 155.755, 277.198 155.377 C 277.809 155, 278.033 155.137, 277.696 155.683 C 276.952 156.886, 284.340 164.326, 285.313 163.354 C 285.691 162.976, 286 163.192, 286 163.833 C 286 164.475, 286.477 165, 287.059 165 C 287.641 165, 287.848 164.563, 287.517 164.028 C 287.187 163.494, 287.612 161.995, 288.463 160.698 C 289.587 158.982, 289.834 157.065, 289.368 153.669 C 289.016 151.101, 288.387 149, 287.971 149 C 287.555 149, 286.953 148.319, 286.634 147.488 C 286.179 146.302, 286.587 146.109, 288.527 146.596 C 290.011 146.969, 291 146.786, 291 146.140 C 291 145.547, 290.325 145.322, 289.500 145.638 C 288.423 146.052, 288 145.536, 288 143.807 C 288 142.483, 287.467 140.868, 286.817 140.217 C 284.802 138.202, 286.865 137.568, 289.037 139.533 C 290.829 141.155, 291.004 141.175, 290.436 139.694 C 290.079 138.762, 289.309 138, 288.726 138 C 288.144 138, 287.971 137.696, 288.342 137.324 C 289.404 136.263, 284.949 132.082, 283.394 132.679 C 282.627 132.973, 282 132.716, 282 132.107 C 282 131.498, 281.127 131, 280.059 131 C 278.991 131, 277.825 130.527, 277.468 129.948 C 277.017 129.219, 265.406 129.142, 239.659 129.698 C 219.221 130.139, 197.325 130.387, 191 130.250 C 165.536 129.696, 96.837 129.531, 86.888 130 M 130.500 134 C 130.114 134.625, 132.156 135, 135.941 135 C 139.314 135, 142 134.557, 142 134 C 142 133.450, 139.552 133, 136.559 133 C 133.566 133, 130.840 133.450, 130.500 134 M 102.450 166.715 C 101.379 168.350, 101 172.193, 101 181.406 C 101 194.236, 101.317 195.294, 105.250 195.610 C 108.312 195.855, 108.549 196.119, 106.500 197 C 104.728 197.762, 104.813 197.867, 107.250 197.930 C 108.763 197.968, 110 197.550, 110 197 C 110 196.450, 110.900 196, 112 196 C 113.100 196, 114 196.450, 114 197 C 114 197.590, 116.975 197.933, 121.250 197.837 L 128.500 197.674 123 197 C 118.805 196.486, 118.330 196.284, 121 196.149 C 129.577 195.716, 130.577 193.972, 128.879 182.398 C 128.323 178.604, 127.853 173.993, 127.834 172.150 C 127.809 169.714, 127.500 169.100, 126.700 169.900 C 125.057 171.543, 124 171.233, 124 169.107 C 124 166.481, 121.788 165.724, 112.200 165.068 C 104.416 164.535, 103.809 164.638, 102.450 166.715 M 165.838 169.742 C 166.201 172.847, 168 173.428, 168 170.441 C 168 169.648, 168.450 169, 169 169 C 169.550 169, 170 168.438, 170 167.750 C 170 167.063, 168.978 166.500, 167.730 166.500 C 165.759 166.500, 165.510 166.927, 165.838 169.742 M 184.861 167 C 184.239 168.599, 185.603 181.936, 186.479 182.812 C 187.205 183.538, 186.907 172.154, 186.104 168.500 C 185.665 166.502, 185.250 166.001, 184.861 167 M 233.750 292.886 C 232.238 294.336, 231 296.106, 231 296.820 C 231 297.534, 230.588 297.863, 230.085 297.552 C 228.842 296.785, 223 301.811, 223 303.648 C 223 304.456, 222.597 304.869, 222.104 304.564 C 221.611 304.260, 220.149 304.943, 218.854 306.082 C 217.559 307.221, 217.063 307.867, 217.750 307.517 C 218.438 307.168, 219 307.359, 219 307.941 C 219 308.523, 218.550 309.056, 218 309.125 C 217.450 309.194, 216.588 309.306, 216.083 309.375 C 214.099 309.646, 213.788 311, 215.711 311 C 218.167 311, 220.450 308.537, 219.468 306.948 C 219.013 306.212, 219.425 305.946, 220.632 306.198 C 222.737 306.638, 234 296.588, 234 294.269 C 234 293.506, 234.453 293.162, 235.007 293.504 C 235.561 293.847, 236.292 293.404, 236.631 292.520 C 237.619 289.944, 236.698 290.061, 233.750 292.886 M 288.064 306.534 C 285.993 309.955, 282.018 314.312, 278.064 317.494 C 269.945 324.027, 262.363 331.976, 264.160 332.070 C 264.897 332.109, 264.600 332.527, 263.500 333 C 260.191 334.422, 270.719 334.153, 277.092 332.652 C 283.333 331.183, 291.103 325.317, 288.770 323.837 C 287.856 323.257, 288.008 323.026, 289.309 323.015 C 290.379 323.006, 290.838 322.546, 290.431 321.888 C 290.053 321.277, 290.269 320.452, 290.912 320.055 C 291.701 319.566, 291.986 316.343, 291.790 310.094 L 291.500 300.856 288.064 306.534" stroke="none" fill="#05a059" fill-rule="evenodd"/><path d="M 99.500 3.242 C 89.660 6.617, 82.883 11.624, 80.133 17.553 C 79.382 19.174, 78.369 21.281, 77.883 22.236 C 77.397 23.191, 77 27.119, 77 30.963 C 77 41.086, 76.916 41.123, 52.779 41.470 L 33.500 41.748 27.143 45.124 C 23.647 46.981, 19.744 49.071, 18.470 49.768 C 14.507 51.937, 7.338 60.708, 3.843 67.662 L 0.500 74.316 0.500 222.908 C 0.500 345.559, 0.737 372.111, 1.855 375 C 7.561 389.732, 13.848 397.279, 25 402.785 L 30.500 405.500 179 405.500 L 327.500 405.500 334 402.193 C 340.523 398.874, 351 389.686, 351 387.284 C 351 386.578, 351.373 386, 351.829 386 C 352.285 386, 353.748 383.674, 355.079 380.831 L 357.500 375.663 357.500 223.581 L 357.500 71.500 354.053 65.500 C 350.320 59, 339.910 48, 337.493 48 C 336.672 48, 336 47.550, 336 47 C 336 46.450, 335.127 46, 334.059 46 C 332.991 46, 331.840 45.550, 331.500 45 C 331.160 44.450, 329.874 44, 328.641 44 C 327.408 44, 325.972 43.611, 325.450 43.135 C 324.228 42.023, 294.380 39.891, 290.742 40.656 C 289.225 40.975, 286.699 40.704, 285.127 40.053 C 282.356 38.905, 282.255 38.607, 281.773 30.152 C 281.142 19.094, 278.425 13.858, 270.500 8.428 C 263.961 3.948, 251.306 2.098, 245.585 4.786 C 244.163 5.454, 241.843 6.543, 240.430 7.207 C 236.610 8.999, 233.633 12.340, 231.070 17.707 C 229.811 20.343, 228.380 23.281, 227.891 24.236 C 227.401 25.191, 227 28.422, 227 31.415 C 227 38.721, 225.602 40, 217.620 40 C 208.983 40, 208.234 39.190, 207.832 29.413 C 207.534 22.156, 207.128 20.727, 203.886 15.503 C 201.028 10.899, 199.145 9.114, 194.886 6.968 C 184.730 1.851, 178.891 0.891, 172.071 3.219 C 168.321 4.498, 160.033 9.606, 158.746 11.431 C 155.038 16.690, 152.938 21.806, 152.455 26.764 C 151.356 38.019, 151.066 38.914, 148.005 40.498 C 143.739 42.704, 136.815 42.429, 133.635 39.927 C 131.216 38.024, 131 37.254, 131 30.510 C 131 17.662, 124.577 7.825, 114.480 5.210 C 111.741 4.501, 108.118 3.488, 106.429 2.960 C 104.740 2.432, 103.165 2.048, 102.929 2.106 C 102.693 2.165, 101.150 2.676, 99.500 3.242 M 175.400 23.452 C 171.661 25.050, 171 26.556, 171 33.475 C 171 39.713, 171.415 40, 180.427 40 C 185.377 40, 187.062 39.589, 188.464 38.040 C 190.826 35.430, 189.878 30.419, 186.243 26.298 C 182.942 22.556, 179.567 21.671, 175.400 23.452 M 99.308 24.010 C 94.176 26.077, 93.876 27.862, 94.200 54.323 C 94.498 78.707, 94.513 78.857, 96.924 81.421 C 100.157 84.859, 105.178 84.913, 108.545 81.545 L 111 79.091 111 54.480 C 111 39.512, 110.597 29.115, 109.970 27.945 C 108.988 26.110, 103.990 22.929, 102.300 23.063 C 101.860 23.098, 100.514 23.524, 99.308 24.010 M 248.040 25.806 L 245 28.846 245 52.973 C 245 82.163, 245.538 84, 254.082 84 C 257.350 84, 260.655 81.225, 261.527 77.747 C 261.846 76.479, 261.969 64.780, 261.803 51.747 C 261.520 29.592, 261.370 27.922, 259.497 26.050 C 258.395 24.949, 256.050 23.760, 254.287 23.407 C 251.591 22.868, 250.596 23.251, 248.040 25.806 M 40.914 71.956 C 36.378 73.330, 32.993 76.156, 30.209 80.892 L 27.500 85.500 27.236 221.449 C 26.939 374.083, 26.425 363.254, 34.364 371.497 C 36.925 374.156, 40.023 376.209, 42.500 376.890 C 45.030 377.585, 58.638 377.991, 79.526 377.994 L 112.552 378 124.125 367.250 C 130.491 361.337, 143.304 349.265, 152.599 340.422 C 210.933 284.926, 228.043 268.717, 234.958 262.400 L 242.731 255.300 268.115 249.186 C 317.207 237.363, 320 236.951, 320 241.529 C 320 243.797, 314.393 255.406, 305.932 270.653 C 301.402 278.819, 295.211 290.410, 292.175 296.412 C 286.338 307.954, 284.863 309.713, 268.500 324.652 C 254.453 337.477, 234.359 356.182, 222 367.939 L 211.500 377.927 261.790 377.964 C 309.815 377.998, 312.253 377.912, 315.924 376.039 C 320.848 373.527, 325.198 369.162, 327.603 364.320 C 329.438 360.625, 329.500 356.039, 329.500 224.500 C 329.500 77.671, 329.743 84.414, 324.205 77.832 C 319.356 72.069, 315.383 71.047, 297.750 71.022 L 282 71 281.994 77.750 C 281.991 81.463, 281.523 86.176, 280.954 88.225 C 279.409 93.789, 274.182 99.910, 268 103.398 C 263.045 106.193, 261.658 106.500, 254 106.500 C 246.458 106.500, 244.900 106.167, 240.176 103.551 C 230.420 98.146, 226.118 90.444, 226.044 78.250 L 226 71 178.500 71 L 131 71 131 79.033 C 131 85.585, 130.546 87.962, 128.540 91.921 C 118.339 112.051, 88.217 111.833, 77.747 91.553 C 76.300 88.749, 75.515 84.957, 75.202 79.250 L 74.749 71 59.125 71.086 C 50.531 71.133, 42.336 71.525, 40.914 71.956 M 0.487 223 C 0.487 302.475, 0.605 334.988, 0.750 295.250 C 0.895 255.513, 0.895 190.488, 0.750 150.750 C 0.605 111.013, 0.487 143.525, 0.487 223 M 244.450 161.504 C 242.828 162.214, 236.100 168.340, 229.500 175.116 C 222.900 181.893, 218.716 186.381, 220.202 185.090 L 222.904 182.742 237.523 196.621 C 245.563 204.254, 252.447 210.601, 252.821 210.725 C 254.088 211.145, 276.008 189.511, 276.004 187.843 C 276 185.996, 252.132 161.963, 249.240 160.893 C 248.228 160.519, 246.073 160.794, 244.450 161.504 M 184.740 218.071 C 162.697 239.603, 156.628 245.017, 155.086 244.527 C 154.020 244.189, 146.869 237.407, 139.195 229.456 C 127.697 217.544, 124.744 215, 122.413 215 C 120.123 215, 117.152 217.433, 106.792 227.792 C 96.125 238.460, 94 241.080, 94 243.565 C 94 246.139, 97.935 250.472, 122.790 275.273 C 138.624 291.073, 152.237 303.984, 153.040 303.965 C 153.843 303.945, 155.502 303.372, 156.727 302.692 C 158.975 301.443, 206.683 256.234, 230.230 233.040 L 242.961 220.500 228.879 205.750 C 221.134 197.637, 214.271 191, 213.626 191 C 212.982 191, 199.983 203.182, 184.740 218.071 M 273.693 257.945 C 263.349 260.605, 254.660 263.006, 254.385 263.281 C 254.110 263.556, 256.611 266.181, 259.943 269.113 L 266 274.445 266 280.095 L 266 285.746 271.047 286.230 C 274.828 286.594, 276.862 287.441, 279.158 289.608 C 281.721 292.027, 282.368 292.255, 283.115 291 C 283.606 290.175, 287.872 283.016, 292.596 275.091 C 297.320 267.166, 301.425 260.055, 301.719 259.290 C 302.524 257.192, 298.049 252.992, 295.076 253.055 C 293.659 253.085, 284.037 255.285, 273.693 257.945 M 234.389 278.798 C 200.131 311.519, 132 377.338, 132 377.714 C 132 377.965, 136.507 377.941, 142.017 377.660 L 152.033 377.149 189.267 340.829 C 209.745 320.853, 232.525 298.607, 239.889 291.394 L 253.278 278.278 249.139 274.139 C 246.863 271.863, 244.662 270.022, 244.250 270.048 C 243.838 270.075, 239.400 274.013, 234.389 278.798" stroke="none" fill="#06334d" fill-rule="evenodd"/><path d="M 98 1.161 C 84.164 7.320, 81.549 9.404, 77.421 17.556 C 75.576 21.202, 75 23.933, 75 29.047 C 75 33.930, 74.572 36.111, 73.426 37.062 C 72.256 38.033, 68.133 38.302, 57.358 38.109 C 40.075 37.800, 34.798 38.738, 23.524 44.123 C 18.637 46.458, 5 58.305, 5 60.217 C 5 60.753, 4.166 62.386, 3.146 63.846 C 1.366 66.394, -0.517 72, 0.407 72 C 0.652 72, 2.086 69.479, 3.594 66.397 C 6.589 60.276, 14.628 50.873, 18.840 48.565 C 20.303 47.764, 24.425 45.652, 28 43.872 L 34.500 40.636 53.115 40.425 C 64.758 40.294, 72.530 39.787, 73.865 39.072 C 75.750 38.063, 76 37.062, 76 30.524 C 76 26.451, 76.450 22.840, 77 22.500 C 77.550 22.160, 78.002 21.121, 78.005 20.191 C 78.014 17.052, 85.374 8.847, 91 5.704 C 95.825 3.008, 97.421 2.638, 104 2.694 C 120.693 2.835, 130.100 12.199, 131.555 30.121 C 132.186 37.906, 132.441 38.660, 134.819 39.783 C 138.074 41.319, 144.139 41.349, 147.436 39.847 C 150.084 38.641, 150.396 37.627, 151.444 26.850 C 152.461 16.394, 157.938 9.041, 168.442 4.027 C 175.210 0.798, 180.079 0.272, 185.929 2.140 C 201.119 6.991, 207.965 15.565, 208.800 30.788 L 209.255 39.077 217.377 38.788 L 225.500 38.500 225.767 32.500 C 225.914 29.200, 226.430 25.600, 226.915 24.500 C 231.908 13.168, 233.595 10.624, 238.112 7.617 C 243.021 4.349, 252.312 1.706, 256.225 2.465 C 266.077 4.377, 268.585 5.582, 274.168 11.087 C 280.401 17.233, 281.526 20.004, 282.412 31.391 C 282.707 35.181, 283.223 38.556, 283.558 38.891 C 283.893 39.226, 287.617 39.537, 291.833 39.582 C 305.260 39.725, 325.013 41.211, 325.575 42.121 C 325.874 42.605, 326.915 43, 327.890 43 C 334.276 43, 348.556 55.009, 354.645 65.500 C 357.825 70.978, 358.507 70.021, 355.715 64 C 352.402 56.857, 340.279 45.681, 333 43.059 C 331.075 42.365, 328.600 41.419, 327.500 40.956 C 324.243 39.584, 317.440 38.924, 300.750 38.358 L 285 37.824 285 30.971 C 285 27.202, 284.550 23.840, 284 23.500 C 283.450 23.160, 283 21.938, 283 20.785 C 283 16.647, 272.462 5.277, 267.729 4.309 C 266.205 3.997, 264.716 3.350, 264.420 2.871 C 264.124 2.392, 262.805 2, 261.488 2 C 260.171 2, 257.948 1.478, 256.548 0.840 C 253.656 -0.478, 249.100 0.589, 240.445 4.609 C 234.300 7.462, 232.067 9.865, 228 18 C 227.450 19.100, 226.550 20.894, 226 21.986 C 225.450 23.079, 225 26.624, 225 29.864 C 225 37.150, 223.909 38.210, 216.831 37.805 L 211.500 37.500 211.235 31 C 210.987 24.919, 210.340 22.448, 207.699 17.500 C 207.112 16.400, 206.043 14.335, 205.323 12.912 C 204.604 11.488, 203.133 9.525, 202.055 8.550 C 199.392 6.140, 191.070 2, 188.890 2 C 187.915 2, 186.840 1.550, 186.500 1 C 185.697 -0.299, 173.567 -0.299, 170.986 1 C 169.894 1.550, 168.100 2.450, 167 3 C 158.735 7.132, 156.462 9.295, 153.391 15.945 C 151.981 19, 150.415 22.281, 149.913 23.236 C 149.411 24.191, 149 27.848, 149 31.361 C 149 37.717, 148.984 37.753, 145.875 38.375 C 140.821 39.386, 137.593 39.103, 135.223 37.443 C 133.245 36.058, 133 35.016, 133 28.002 C 133 23.666, 132.550 19.840, 132 19.500 C 131.450 19.160, 131 18.239, 131 17.452 C 131 14.458, 120.907 4, 118.017 4 C 116.973 4, 115.871 3.600, 115.568 3.110 C 115.036 2.250, 111.266 1.394, 104 0.486 C 102.075 0.245, 99.375 0.549, 98 1.161 M 173.027 25.693 C 171.377 27.790, 170.974 29.504, 171.204 33.443 L 171.500 38.500 179.252 38.792 C 186.689 39.072, 187.051 38.982, 188.149 36.572 C 189.065 34.561, 188.948 33.151, 187.560 29.518 C 185.605 24.399, 183.690 23, 178.638 23 C 176.037 23, 174.605 23.687, 173.027 25.693 M 96.861 25.910 C 94.533 27.793, 94.495 28.122, 94.174 49.160 C 93.797 73.927, 94.254 78.345, 97.535 81.626 C 100.749 84.840, 104.499 84.655, 108.048 81.106 L 110.942 78.212 110.342 53.356 C 109.782 30.178, 109.603 28.348, 107.696 26.250 C 105.141 23.438, 100.111 23.280, 96.861 25.910 M 247.861 25.912 L 245.500 27.823 245.500 53.498 L 245.500 79.173 248.306 81.587 C 251.812 84.603, 255.162 84.657, 258.375 81.750 C 261.238 79.159, 261.443 76.522, 261.162 45.750 C 261.013 29.455, 260.836 27.836, 259 26 C 256.435 23.435, 250.972 23.392, 247.861 25.912 M 175.068 28.904 C 171.104 34.471, 172.869 38, 179.618 38 C 185.771 38, 187 37.262, 187 33.567 C 187 26.636, 178.929 23.482, 175.068 28.904 M 47.317 71.919 C 41.225 72.352, 38.415 73.034, 36.317 74.592 C 32.676 77.295, 29.284 82.318, 28.016 86.882 C 27.366 89.222, 27.009 137.345, 27.006 223.068 C 26.999 368.260, 26.715 361.166, 32.874 369.667 C 38.439 377.350, 39.052 377.461, 77.735 377.799 L 111.971 378.098 123.735 367.157 C 130.206 361.140, 140.450 351.465, 146.500 345.658 L 157.500 335.099 119.932 335.050 C 77.995 334.994, 74.922 334.614, 69.273 328.777 C 62.682 321.967, 62.999 326.859, 63.006 232.282 C 63.009 173.370, 63.353 145.247, 64.104 142.500 C 65.580 137.096, 69.306 132.395, 74.018 129.991 C 77.838 128.042, 80.049 128, 178.248 128 L 278.576 128 283.030 130.250 C 290.973 134.263, 294 141.747, 294 157.375 C 294 164.728, 293.742 165.893, 291.690 167.821 L 289.381 169.991 277.769 159.126 L 266.158 148.261 222.829 147.538 C 164.794 146.570, 92.598 147.639, 88.962 149.520 C 82.690 152.763, 83 148.521, 83 231.014 C 83 312.195, 82.871 310.182, 88.260 313.191 C 89.986 314.155, 100.832 314.366, 135.490 314.110 L 180.480 313.778 189.990 304.709 C 195.220 299.721, 208.950 286.594, 220.500 275.538 L 241.500 255.437 257.250 251.481 L 273 247.524 273 233.650 L 273 219.776 282.968 209.689 C 288.450 204.141, 293.160 199.826, 293.434 200.100 C 293.707 200.374, 293.980 210.158, 294.039 221.843 C 294.138 241.230, 294.294 243.043, 295.824 242.575 C 302.657 240.484, 315.890 238.007, 317.743 238.472 C 319.332 238.871, 320 239.777, 320 241.537 C 320 244.316, 313.876 256.917, 302.066 278.442 L 294.235 292.713 293.824 306.607 C 293.384 321.478, 292.892 323.248, 287.657 328.777 C 283.582 333.082, 276.852 335, 265.822 335 L 257.007 335 244.253 347.254 C 237.239 353.994, 227.031 363.669, 221.569 368.754 L 211.639 378 260.569 377.994 C 289.790 377.991, 310.936 377.590, 313.065 376.998 C 317.914 375.652, 324.874 369.487, 327.114 364.556 C 328.874 360.680, 328.957 354.438, 328.978 223.864 L 329 87.228 326.202 81.864 C 324.141 77.913, 322.230 75.841, 318.952 74 C 314.719 71.623, 313.713 71.500, 298.500 71.500 L 282.500 71.500 281.993 80.500 C 281.424 90.605, 279.791 94.246, 273.132 100.262 C 267.272 105.556, 261.531 107.346, 252.150 106.803 C 243.187 106.284, 237.544 103.661, 232.135 97.501 C 227.753 92.510, 226.137 88.077, 225.377 78.964 L 224.720 71.093 188.218 71.024 C 168.142 70.986, 147.168 71.252, 141.608 71.615 L 131.500 72.276 131.418 79.888 C 131.290 91.797, 126.068 99.791, 115.149 104.789 C 110.526 106.906, 108.732 107.181, 102.143 106.786 C 85.262 105.773, 74.934 95.297, 74.883 79.136 L 74.861 72.276 68.181 71.645 C 61.156 70.982, 60.382 70.992, 47.317 71.919 M 236.687 167.672 C 225.594 178.067, 204.882 198.176, 178.820 223.853 C 166.896 235.601, 156.589 245.030, 155.917 244.806 C 155.245 244.582, 148.085 237.727, 140.007 229.574 C 128.122 217.578, 124.791 214.750, 122.549 214.750 C 120.343 214.750, 117.245 217.268, 107.324 227.125 C 100.473 233.931, 94.410 240.328, 93.850 241.341 C 93.148 242.611, 93.181 244.023, 93.958 245.899 C 94.881 248.126, 147.607 300.779, 151.373 303.235 C 153.679 304.738, 155.965 303.889, 160.760 299.750 C 166.052 295.181, 216.284 247.422, 242.519 222.014 C 251.330 213.481, 262.467 202.725, 267.269 198.110 C 272.959 192.643, 276 188.969, 276 187.561 C 276 186.120, 271.730 181.176, 263.164 172.701 C 253.032 162.675, 249.754 160, 247.601 160 C 245.579 160, 242.754 161.986, 236.687 167.672 M 101.571 164.571 C 100.293 165.850, 100 168.747, 100 180.117 C 100 193.620, 100.083 194.174, 102.455 196.545 C 104.797 198.888, 105.476 199, 117.320 199 C 128.361 199, 130.021 198.771, 132.365 196.927 C 134.983 194.869, 135 194.764, 135 181.150 C 135 162.155, 135.814 163, 117.515 163 C 105.783 163, 102.854 163.289, 101.571 164.571 M 158.571 164.571 C 157.289 165.854, 157.003 168.751, 157.015 180.321 C 157.024 188.120, 157.361 194.995, 157.765 195.600 C 159.488 198.181, 163.373 199, 173.887 199 C 186.634 199, 189.497 198.054, 191.057 193.327 C 192.618 188.596, 191.266 166.409, 189.296 164.439 C 187.109 162.252, 160.778 162.365, 158.571 164.571 M 275.500 257.878 C 265.050 260.511, 255.853 262.880, 255.063 263.144 C 254.111 263.462, 255.692 265.292, 259.744 268.562 L 265.862 273.500 265.931 279.750 L 266 286 270.965 286 C 275.037 286, 276.535 286.531, 279.290 288.950 L 282.650 291.900 284.701 287.700 C 285.829 285.390, 290.182 277.899, 294.375 271.053 L 301.998 258.607 299.312 255.803 C 297.834 254.262, 296.148 253.021, 295.563 253.046 C 294.978 253.072, 285.950 255.246, 275.500 257.878 M 230.781 282.568 C 212.760 300.050, 188.219 323.789, 171.926 339.500 C 164.511 346.650, 152.759 358.012, 145.812 364.750 L 133.180 377 137.840 376.972 C 143.277 376.939, 138.804 380.727, 182.549 339.097 C 199.076 323.369, 217.301 306.238, 223.049 301.029 C 228.797 295.819, 237.236 287.938, 241.802 283.516 L 250.104 275.474 247.083 272.579 L 244.061 269.684 230.781 282.568 M 0.526 376.500 C 2.787 388.464, 19.375 406.116, 28.180 405.930 L 31.500 405.859 27.845 404.515 C 25.834 403.775, 22.909 402.379, 21.345 401.411 C 15.816 397.992, 6.892 388.450, 4.595 383.500 C 3.318 380.750, 1.753 377.375, 1.116 376 C -0.018 373.551, -0.030 373.561, 0.526 376.500" stroke="none" fill="#f5f9f8" fill-rule="evenodd"/></svg>